# xmcd
#
# Track frame offsets: 
#        150
#        15019
#        31916
#        51836
#        67081
#        82696
#        97837
#        115712
#        129196
#        145691
#        169093
#        185014
#
# Disc length: 2608 seconds
#
# Revision: 0
# Processed by: cddbd v1.5.2PL0 Copyright (c) Steve Scherf et al.
# Submitted via: ExactAudioCopyFreeDBPlugin 1.0
#
DISCID=870a2e0c
DTITLE=Kolumbus Kris - See on Voodoo
DYEAR=2005
DGENRE=Blues
TTITLE0=Tallinna ja Tartu vahel
TTITLE1=Kui sa vaatad mind nii
TTITLE2=Kooliansambel
TTITLE3=Minu kallim on alkohoolik
TTITLE4=Voodoo
TTITLE5=15 aastat
TTITLE6=Boyfriend
TTITLE7=Mercedesega neiu
TTITLE8=Täna olen vaba
TTITLE9=Eesti aja järgi kell on kolm
TTITLE10=Välismaa mees (2005)
TTITLE11=Selg vastu seina (2005)
EXTD=
EXTT0=
EXTT1=
EXTT2=
EXTT3=
EXTT4=
EXTT5=
EXTT6=
EXTT7=
EXTT8=
EXTT9=
EXTT10=
EXTT11=
PLAYORDER=
